<svg width="20" height="21" viewBox="0 0 20 21" fill="none" xmlns="http://www.w3.org/2000/svg">
<g id="vuesax/outline/attach-circle">
<g id="attach-circle">
<path id="Vector" d="M10.1661 14.983C9.58281 14.983 8.99115 14.7579 8.54948 14.3163C8.11615 13.8829 7.87448 13.308 7.87448 12.6996C7.87448 12.0913 8.11615 11.508 8.54948 11.083L9.72446 9.90795C9.96612 9.66629 10.3661 9.66629 10.6078 9.90795C10.8495 10.1496 10.8495 10.5496 10.6078 10.7913L9.43281 11.9663C9.23281 12.1663 9.12448 12.4246 9.12448 12.6996C9.12448 12.9746 9.23281 13.2413 9.43281 13.4329C9.84114 13.8413 10.4995 13.8413 10.9078 13.4329L12.7578 11.5829C13.8161 10.5246 13.8161 8.80796 12.7578 7.74962C11.6995 6.69129 9.98282 6.69129 8.92449 7.74962L6.90779 9.76628C6.48279 10.1913 6.24947 10.7496 6.24947 11.3413C6.24947 11.933 6.48279 12.4996 6.90779 12.9163C7.14945 13.1579 7.14945 13.5579 6.90779 13.7996C6.66612 14.0413 6.26612 14.0413 6.02445 13.7996C5.36612 13.1413 5.00781 12.2663 5.00781 11.3329C5.00781 10.3996 5.36612 9.52462 6.02445 8.86629L8.04116 6.84961C9.58282 5.30794 12.0995 5.30794 13.6411 6.84961C15.1828 8.39128 15.1828 10.9079 13.6411 12.4496L11.7912 14.2996C11.3412 14.7579 10.7578 14.983 10.1661 14.983Z" fill="#0A2538"/>
<path id="Vector_2" d="M9.99935 19.4587C5.05768 19.4587 1.04102 15.442 1.04102 10.5003C1.04102 5.55866 5.05768 1.54199 9.99935 1.54199C14.941 1.54199 18.9577 5.55866 18.9577 10.5003C18.9577 15.442 14.941 19.4587 9.99935 19.4587ZM9.99935 2.79199C5.74935 2.79199 2.29102 6.25033 2.29102 10.5003C2.29102 14.7503 5.74935 18.2087 9.99935 18.2087C14.2493 18.2087 17.7077 14.7503 17.7077 10.5003C17.7077 6.25033 14.2493 2.79199 9.99935 2.79199Z" fill="#0A2538"/>
</g>
</g>
</svg>
